<svg xmlns="http://www.w3.org/2000/svg" width="118" height="19" viewBox="0 0 118 19">
    <g fill="none" fill-rule="nonzero">
        <path fill="#FFF" d="M17.843 8.381L10.57 2.706v15.892h3.583v-8.514l3.691 2.966 3.692-2.966v8.514h3.582V2.706zM.713 18.598h3.583V8.666H.713zM30.281 12.49h12.363V8.8H30.281zM30.281 6.397h12.526l2.022-3.69H30.28zM30.281 14.892v3.691H44.83l-2.022-3.691zM57.144 6.45c-.897-.307-1.65-.46-2.256-.46-.48 0-.858.091-1.134.274-.275.182-.413.448-.413.798 0 .336.12.617.36.843.24.226.537.409.89.547.353.14.876.318 1.568.537 1.03.306 1.882.613 2.553.919.67.306 1.246.777 1.727 1.412.48.635.72 1.463.72 2.484 0 1.022-.262 1.894-.784 2.616-.523.722-1.239 1.267-2.15 1.63-.911.366-1.925.548-3.04.548a10.68 10.68 0 0 1-3.677-.668c-1.221-.445-2.277-1.054-3.167-1.827l1.504-3.13c.749.685 1.635 1.247 2.66 1.685 1.023.438 1.93.657 2.722.657.579 0 1.034-.11 1.366-.329.332-.218.498-.54.498-.963 0-.35-.124-.641-.37-.875a2.71 2.71 0 0 0-.933-.558c-.374-.139-.9-.303-1.578-.493-1.017-.292-1.857-.587-2.522-.886a4.484 4.484 0 0 1-1.705-1.357c-.474-.606-.71-1.413-.71-2.42 0-.948.244-1.78.731-2.495.488-.715 1.18-1.266 2.077-1.653.896-.386 1.938-.58 3.125-.58 1.073 0 2.132.157 3.178.47 1.045.315 1.963.734 2.754 1.26L59.676 7.63a12.816 12.816 0 0 0-2.532-1.181M66.082 2.706h3.95V9.19h6.106V2.706h3.95v15.892h-3.95V12.5h-6.107v6.098h-3.949zM91.822 15.126c.85 0 1.536-.293 2.062-.88.525-.586.788-1.376.788-2.37v-9.17h3.95v9.17c0 1.35-.277 2.534-.83 3.55a5.703 5.703 0 0 1-2.375 2.348c-1.03.549-2.235.824-3.616.824-1.382 0-2.594-.275-3.638-.824a5.804 5.804 0 0 1-2.417-2.348c-.57-1.016-.853-2.2-.853-3.55v-9.17h3.95v9.17c0 .98.28 1.766.842 2.36.562.593 1.274.89 2.137.89zM113.192 10.256c.457-.424.686-1.035.686-1.837 0-.77-.229-1.364-.686-1.78-.457-.415-1.106-.622-1.946-.622h-2.61v4.873h2.61c.84 0 1.489-.21 1.946-.634m2.936-6.087c1.11.974 1.664 2.346 1.664 4.114 0 1.874-.555 3.33-1.664 4.364-1.11 1.036-2.67 1.553-4.68 1.553h-2.811v4.398h-4.116V2.706h6.928c2.01 0 3.568.488 4.679 1.463"/>
        <ellipse cx="2.487" cy="2.706" fill="#FF8443" rx="2.464" ry="2.483"/>
    </g>
</svg>
