<svg xmlns="http://www.w3.org/2000/svg" width="60" height="44" viewBox="0 0 60 44">
    <g fill="none" fill-rule="evenodd" stroke-linecap="square" stroke-width="3.636">
        <path stroke="#FF7943" d="M5.455 12.91a3.635 3.635 0 0 1-3.637-3.637 3.635 3.635 0 0 1 3.637-3.637A3.635 3.635 0 0 1 9.09 9.273a3.635 3.635 0 0 1-3.636 3.636z"/>
        <path fill="#FFF0E9" stroke="#FF7943" d="M19.09 38.364h-5.454V31.09H10V22a3.635 3.635 0 0 1 3.636-3.636h1.819"/>
        <path stroke="#FF7943" d="M54.545 12.91a3.635 3.635 0 0 0 3.637-3.637 3.635 3.635 0 0 0-3.637-3.637 3.635 3.635 0 0 0-3.636 3.637 3.635 3.635 0 0 0 3.636 3.636z"/>
        <path fill="#FFF0E9" stroke="#FF7943" d="M40.91 38.364h5.454V31.09H50V22a3.635 3.635 0 0 0-3.636-3.636h-1.819"/>
        <path stroke="#3450F4" d="M40 12.91A5.454 5.454 0 1 1 40 2a5.454 5.454 0 0 1 0 10.91z"/>
        <path fill="#E8ECFF" stroke="#3450F4" d="M35.455 42h-10.91V31.09H20.91V22a3.635 3.635 0 0 1 3.636-3.636h10.91A3.635 3.635 0 0 1 39.09 22v10.91h-3.636V42z"/>
    </g>
</svg>
