<svg xmlns="http://www.w3.org/2000/svg" width="44" height="44" viewBox="0 0 44 44">
    <g fill="none" fill-rule="evenodd" stroke-linecap="square" stroke-width="3.636">
        <path stroke="#FF7943" d="M7.455 12.91a3.635 3.635 0 0 1-3.637-3.637 3.635 3.635 0 0 1 3.637-3.637 3.635 3.635 0 0 1 3.636 3.637 3.635 3.635 0 0 1-3.636 3.636z"/>
        <path fill="#FFF0E9" stroke="#FF7943" d="M11.09 38.364H5.637V31.09H2V22a3.635 3.635 0 0 1 3.636-3.636h1.819"/>
        <path stroke="#FF7943" d="M36.545 12.91a3.635 3.635 0 0 0 3.637-3.637 3.635 3.635 0 0 0-3.637-3.637 3.635 3.635 0 0 0-3.636 3.637 3.635 3.635 0 0 0 3.636 3.636z"/>
        <path fill="#FFF0E9" stroke="#FF7943" d="M32.91 38.364h5.454V31.09H42V22a3.635 3.635 0 0 0-3.636-3.636h-1.819"/>
        <path stroke="#3450F4" d="M22 12.91A5.454 5.454 0 1 1 22 2a5.454 5.454 0 0 1 0 10.91z"/>
        <path fill="#E8ECFF" stroke="#3450F4" d="M27.455 42h-10.91V31.09H12.91V22a3.635 3.635 0 0 1 3.636-3.636h10.91A3.635 3.635 0 0 1 31.09 22v10.91h-3.636V42z"/>
    </g>
</svg>
