<svg xmlns="http://www.w3.org/2000/svg" width="23" height="18" viewBox="0 0 23 18">
    <path fill="#FFF" fill-rule="nonzero" d="M23 2.142a9.716 9.716 0 0 1-2.71.715 4.593 4.593 0 0 0 2.075-2.51 9.744 9.744 0 0 1-2.998 1.102A4.794 4.794 0 0 0 15.923.016c-2.606 0-4.718 2.032-4.718 4.537 0 .355.041.702.122 1.034C7.406 5.397 3.929 3.59 1.603.845a4.372 4.372 0 0 0-.639 2.281c0 1.574.834 2.964 2.099 3.776a4.862 4.862 0 0 1-2.137-.57v.058c0 2.197 1.627 4.032 3.784 4.45a4.958 4.958 0 0 1-1.243.158c-.305 0-.6-.029-.889-.084.601 1.804 2.343 3.115 4.407 3.151a9.708 9.708 0 0 1-5.86 1.94c-.38 0-.756-.022-1.125-.063a13.724 13.724 0 0 0 7.232 2.042c8.68 0 13.424-6.914 13.424-12.91l-.016-.588A9.233 9.233 0 0 0 23 2.142z" opacity=".4"/>
</svg>
